# xmcd CD database file
#
# Track frame offsets:
#	182
#	11840
#	23610
#	36337
#	53075
#	68942
#	82722
#	96495
#	110887
#	125685
#	136327
#	152385
#	168930
#	183560
#
# Disc length: 2629 seconds
#
# Revision: 0
# Processed by: cddbd v1.5.2PL0 Copyright (c) Steve Scherf et al.
# Submitted via: CDex 1.51
#
DISCID=b70a430e
DTITLE=Mark En Mirella - Mark En Mirella
DYEAR=1900
DGENRE=Country
TTITLE0=Had Ik Maar Money
TTITLE1=Wat Ik Zou Willen
TTITLE2=Op Dat Eiland In De Zon
TTITLE3=Verzonken Stad
TTITLE4=Magdalena
TTITLE5=De Dag Van Morgen
TTITLE6=Turning Over The New Leaves
TTITLE7=Good Ol'sunshine
TTITLE8=Gone
TTITLE9=Just One Time
TTITLE10=I Can't Help Thinking
TTITLE11=Send A Little Bit Of Love
TTITLE12=Since You've Been Gone
TTITLE13=It's A Beautiful Day
EXTD=
EXTT0=
EXTT1=
EXTT2=
EXTT3=
EXTT4=
EXTT5=
EXTT6=
EXTT7=
EXTT8=
EXTT9=
EXTT10=
EXTT11=
EXTT12=
EXTT13=
PLAYORDER=
